<svg width="18" height="19" viewBox="0 0 18 19" fill="none" xmlns="http://www.w3.org/2000/svg">
<path d="M16 1H2C1.44772 1 1 1.44772 1 2V3.58579C1 3.851 1.10536 4.10536 1.29289 4.29289L6.70711 9.70711C6.89464 9.89464 7 10.149 7 10.4142V16.382C7 17.1253 7.78231 17.6088 8.44721 17.2764L10.4472 16.2764C10.786 16.107 11 15.7607 11 15.382V10.4142C11 10.149 11.1054 9.89464 11.2929 9.70711L16.7071 4.29289C16.8946 4.10536 17 3.851 17 3.58579V2C17 1.44772 16.5523 1 16 1Z" stroke="#425768" stroke-width="2" stroke-linecap="round" stroke-linejoin="round"/>
</svg>
