<svg width="12" height="11" viewBox="0 0 12 11" fill="none" xmlns="http://www.w3.org/2000/svg">
<g clip-path="url(#clip0_3392_82988)">
<path d="M9.3248 2.01917C9.3248 3.13211 8.41935 4.03834 7.30563 4.03834C6.82932 4.03834 6.39075 3.8725 6.04492 3.59505C6.36167 3.1494 6.54795 2.60551 6.54795 2.01917C6.54795 1.43283 6.36167 0.888938 6.04492 0.44329C6.39075 0.165841 6.82932 0 7.30563 0C8.41935 0 9.3248 0.905444 9.3248 2.01917Z" fill="#FFB36D"/>
<path d="M11.1269 7.19721V10.628H8.35001V7.19721C8.35001 6.51341 8.06942 5.89328 7.6167 5.44763H9.37807C10.3425 5.44763 11.1269 6.23282 11.1269 7.19721Z" fill="#FFB36D"/>
<path d="M5.84059 2.01917C5.84059 2.39015 5.73998 2.73834 5.56392 3.0378C5.49947 3.14862 5.42402 3.25237 5.33992 3.34825C5.26132 3.43786 5.17565 3.52038 5.08212 3.59505C4.73629 3.8725 4.29772 4.03834 3.82142 4.03834C2.70848 4.03834 1.80225 3.13211 1.80225 2.01917C1.80225 0.90623 2.70848 0 3.82142 0C4.29772 0 4.73629 0.165841 5.08212 0.44329C5.17565 0.517172 5.26211 0.600485 5.33992 0.690086C5.42481 0.785975 5.49947 0.889724 5.56392 1.00055C5.73998 1.3 5.84059 1.64819 5.84059 2.01917Z" fill="#FFB36D"/>
<path d="M7.64282 7.19721V10.628H0V7.19721C0 6.23282 0.784403 5.44763 1.7488 5.44763H5.89403C6.85842 5.44763 7.64282 6.23282 7.64282 7.19721Z" fill="#FFB36D"/>
</g>
<defs>
<clipPath id="clip0_3392_82988">
<rect width="11.1271" height="10.628" fill="white"/>
</clipPath>
</defs>
</svg>
