<svg width="117" height="35" viewBox="0 0 117 35" fill="none" xmlns="http://www.w3.org/2000/svg">
<path fill-rule="evenodd" clip-rule="evenodd" d="M0 17.4217C0 7.81574 7.79998 0 17.3866 0C26.9732 0 34.7732 7.81574 34.7732 17.4217C34.7732 26.094 28.4177 33.3065 20.1287 34.6283L18.8825 29.7424C20.2335 29.1598 21.1818 27.8122 21.1818 26.2474C21.1818 24.1514 19.4794 22.4445 17.3866 22.4445C15.2938 22.4445 13.5914 24.1514 13.5914 26.2474C13.5914 27.7165 14.4277 28.994 15.6482 29.6271L14.6054 34.6211C6.33594 33.2838 0 26.0806 0 17.4217ZM22.1229 26.2474C22.1229 28.0284 21.1407 29.5819 19.69 30.3951C21.9349 29.4799 23.5201 27.2717 23.5201 24.698C23.5201 21.308 20.7698 18.5521 17.3866 18.5521C14.0034 18.5521 11.251 21.308 11.251 24.698C11.251 27.2717 12.8373 29.4799 15.0822 30.3951C13.6315 29.5819 12.6493 28.0284 12.6493 26.2474C12.6493 23.6305 14.775 21.5015 17.3866 21.5015C19.9982 21.5015 22.1229 23.6305 22.1229 26.2474ZM17.3866 17.6081C21.2886 17.6081 24.4623 20.7881 24.4623 24.698C24.4623 27.4354 22.9058 29.8166 20.6321 30.9963C23.8746 29.7002 26.1719 26.5212 26.1719 22.8162C26.1719 17.9622 22.2318 14.0132 17.3866 14.0132C12.5414 14.0132 8.60135 17.9622 8.60135 22.8162C8.60135 26.5212 10.8976 29.6992 14.139 30.9963C11.8664 29.8155 10.3099 27.4354 10.3099 24.698C10.3099 20.7881 13.4846 17.6081 17.3866 17.6081ZM17.3866 13.0691C22.7496 13.0691 27.1129 17.4413 27.1129 22.8162C27.1129 26.6932 24.8414 30.0492 21.5609 31.6181C25.8112 29.9442 28.8287 25.7903 28.8287 20.9436C28.8287 14.6216 23.6969 9.47834 17.3866 9.47834C11.0763 9.47834 5.94451 14.6216 5.94451 20.9436C5.94451 25.7903 8.96094 29.9442 13.2113 31.6181C9.9308 30.0492 7.65923 26.6932 7.65923 22.8162C7.65923 17.4413 12.0236 13.0691 17.3866 13.0691ZM17.3866 8.53432C24.2147 8.53432 29.7698 14.1007 29.7698 20.9436C29.7698 25.6225 27.1736 29.7044 23.3465 31.8189C28.1013 29.5705 31.3992 24.7207 31.3992 19.1121C31.3992 11.3695 25.1136 5.07117 17.3866 5.07117C9.65956 5.07117 3.37294 11.3695 3.37294 19.1121C3.37294 24.7207 6.6719 29.5705 11.4267 31.8189C7.59964 29.7044 5.00239 25.6225 5.00239 20.9436C5.00239 14.1007 10.5585 8.53432 17.3866 8.53432ZM32.3414 19.1121C32.3414 24.7186 29.252 29.6158 24.6914 32.1844C30.1037 29.483 33.8311 23.8806 33.8311 17.4217C33.8311 8.33563 26.4544 0.944025 17.3866 0.944025C8.31881 0.944025 0.941094 8.33563 0.941094 17.4217C0.941094 23.8806 4.66848 29.483 10.0818 32.1844C5.52019 29.6158 2.43184 24.7186 2.43184 19.1121C2.43184 10.8496 9.14176 4.12818 17.3866 4.12818C25.6314 4.12818 32.3414 10.8496 32.3414 19.1121ZM50.96 20.68C50.44 21.4533 49.7333 21.84 48.84 21.84C47.9467 21.84 47.24 21.4533 46.72 20.68C46.2 19.9067 45.94 18.82 45.94 17.42C45.94 16.1133 46.2 15.0933 46.72 14.36C47.24 13.6267 47.9467 13.26 48.84 13.26C49.7333 13.26 50.44 13.6267 50.96 14.36C51.48 15.0933 51.74 16.1133 51.74 17.42C51.74 18.82 51.48 19.9067 50.96 20.68ZM51.22 27.36C51.8067 27.5467 52.4467 27.64 53.14 27.64C53.6467 27.64 54.0933 27.5933 54.48 27.5C54.88 27.42 55.2 27.32 55.44 27.2L54.92 25.06C54.7333 25.1267 54.5133 25.18 54.26 25.22C54.02 25.26 53.76 25.28 53.48 25.28C52.92 25.28 52.38 25.18 51.86 24.98C51.34 24.7933 50.9267 24.4667 50.62 24C51.8867 23.64 52.8933 22.8933 53.64 21.76C54.3867 20.6267 54.76 19.18 54.76 17.42C54.76 16.3667 54.6133 15.4267 54.32 14.6C54.04 13.76 53.64 13.0533 53.12 12.48C52.6 11.9067 51.9733 11.4733 51.24 11.18C50.52 10.8733 49.72 10.72 48.84 10.72C47.96 10.72 47.1533 10.8733 46.42 11.18C45.7 11.4733 45.08 11.9067 44.56 12.48C44.04 13.04 43.6333 13.74 43.34 14.58C43.06 15.4067 42.92 16.3533 42.92 17.42C42.92 18.34 43.0267 19.18 43.24 19.94C43.4533 20.6867 43.76 21.3467 44.16 21.92C44.56 22.4933 45.04 22.9667 45.6 23.34C46.1733 23.7 46.8067 23.9533 47.5 24.1C47.7267 24.6067 48.02 25.0733 48.38 25.5C48.74 25.94 49.1533 26.3133 49.62 26.62C50.1 26.94 50.6333 27.1867 51.22 27.36ZM57.2119 10.96V24H65.5719V21.52H60.1519V18.52H64.5919V16.06H60.1519V13.44H65.3719V10.96H57.2119ZM68.1689 10.96V24H72.0089C72.9689 24 73.8356 23.8667 74.6089 23.6C75.3956 23.3333 76.0689 22.9333 76.6289 22.4C77.1889 21.8533 77.6222 21.1667 77.9289 20.34C78.2356 19.5133 78.3889 18.54 78.3889 17.42C78.3889 16.3 78.2356 15.3333 77.9289 14.52C77.6222 13.7067 77.1822 13.04 76.6089 12.52C76.0356 11.9867 75.3489 11.5933 74.5489 11.34C73.7489 11.0867 72.8489 10.96 71.8489 10.96H68.1689ZM71.6689 21.62H71.1089V13.34H71.6689C72.2289 13.34 72.7356 13.4067 73.1889 13.54C73.6422 13.6733 74.0289 13.9 74.3489 14.22C74.6689 14.5267 74.9156 14.9467 75.0889 15.48C75.2756 16 75.3689 16.6467 75.3689 17.42C75.3689 18.2067 75.2756 18.8667 75.0889 19.4C74.9156 19.9333 74.6689 20.3667 74.3489 20.7C74.0289 21.02 73.6422 21.2533 73.1889 21.4C72.7356 21.5467 72.2289 21.62 71.6689 21.62ZM84.8681 10.96V24H92.9681V21.52H87.8081V10.96H84.8681ZM94.9797 14.08V24H97.9197V14.08H94.9797ZM95.2197 12.2C95.5397 12.48 95.9464 12.62 96.4397 12.62C96.9464 12.62 97.353 12.48 97.6597 12.2C97.9797 11.9067 98.1397 11.5333 98.1397 11.08C98.1397 10.6267 97.9797 10.26 97.6597 9.98C97.353 9.7 96.9464 9.56 96.4397 9.56C95.9464 9.56 95.5397 9.7 95.2197 9.98C94.8997 10.26 94.7397 10.6267 94.7397 11.08C94.7397 11.5333 94.8997 11.9067 95.2197 12.2ZM102.747 23.96C103.187 24.1467 103.714 24.24 104.327 24.24C104.807 24.24 105.227 24.2 105.587 24.12C105.947 24.04 106.26 23.96 106.527 23.88L106.067 21.74C105.934 21.7933 105.78 21.84 105.607 21.88C105.447 21.92 105.287 21.94 105.127 21.94C104.74 21.94 104.427 21.82 104.187 21.58C103.96 21.3267 103.847 20.92 103.847 20.36V16.38H106.227V14.08H103.847V11.44H101.407L101.067 14.08L99.547 14.2V16.38H100.907V20.4C100.907 20.9733 100.967 21.5 101.087 21.98C101.22 22.4467 101.42 22.8467 101.687 23.18C101.967 23.5133 102.32 23.7733 102.747 23.96ZM110.272 23.9C110.885 24.1267 111.545 24.24 112.252 24.24C112.852 24.24 113.458 24.14 114.072 23.94C114.698 23.74 115.265 23.4667 115.772 23.12L114.792 21.34C114.072 21.78 113.358 22 112.652 22C111.985 22 111.418 21.8333 110.952 21.5C110.498 21.1533 110.205 20.62 110.072 19.9H116.012C116.038 19.78 116.065 19.6 116.092 19.36C116.118 19.12 116.132 18.8667 116.132 18.6C116.132 17.92 116.045 17.2933 115.872 16.72C115.698 16.1333 115.432 15.6267 115.072 15.2C114.725 14.7733 114.285 14.44 113.752 14.2C113.232 13.96 112.618 13.84 111.912 13.84C111.312 13.84 110.732 13.96 110.172 14.2C109.612 14.44 109.112 14.7867 108.672 15.24C108.245 15.68 107.898 16.2267 107.632 16.88C107.365 17.52 107.232 18.24 107.232 19.04C107.232 19.8667 107.358 20.6 107.612 21.24C107.865 21.88 108.218 22.4267 108.672 22.88C109.125 23.32 109.658 23.66 110.272 23.9ZM113.632 17.96H110.052C110.158 17.32 110.385 16.8467 110.732 16.54C111.092 16.2333 111.505 16.08 111.972 16.08C112.572 16.08 112.998 16.2533 113.252 16.6C113.505 16.9467 113.632 17.4 113.632 17.96Z" fill="#005DFF"/>
</svg>
