<svg width="20" height="24" viewBox="0 0 20 24" fill="none" xmlns="http://www.w3.org/2000/svg">
<path d="M16.7993 24H2.39989C1.07447 24 0 22.9256 0 21.6001V2.40095C0 1.07552 1.07447 0.00105295 2.39989 0.00105295H10.7995C10.8103 -0.000350984 10.8211 -0.000350984 10.8319 0.00105295H10.8391C10.8504 0.0045928 10.8622 0.00700474 10.8739 0.00825268C10.9798 0.0150324 11.0843 0.0355993 11.1847 0.0694498H11.2027H11.2207H11.2351C11.2573 0.0849531 11.2781 0.102208 11.2975 0.121048C11.4282 0.179149 11.5473 0.260457 11.6491 0.361037L18.8488 7.56072C18.9493 7.66245 19.0307 7.78157 19.0888 7.9123C19.0996 7.9387 19.108 7.9639 19.1164 7.9915L19.1284 8.0251C19.1618 8.12516 19.1816 8.2293 19.1871 8.33468C19.1882 8.34663 19.191 8.35836 19.1955 8.36948V8.37668C19.1975 8.38454 19.1987 8.39258 19.1991 8.40068V21.6001C19.1991 22.2366 18.9463 22.847 18.4962 23.2971C18.0461 23.7472 17.4357 24 16.7993 24ZM12.5082 14.4004V20.4002H13.6362V17.9523H15.3881V16.9467H13.6362V15.4096H15.5993V14.4004H12.5082ZM8.06844 14.4004V20.4002H9.51558C10.1226 20.43 10.7105 20.1828 11.1139 19.7282C11.5278 19.2001 11.7351 18.5393 11.6971 17.8695V16.8975C11.7249 16.2347 11.5118 15.5842 11.0971 15.0664C10.7066 14.6219 10.1367 14.3773 9.54558 14.4004H8.06844ZM3.59984 14.4004V20.4002H4.72779V18.2895H5.47896C5.98056 18.3172 6.4705 18.1315 6.8277 17.7783C7.16858 17.3972 7.34535 16.897 7.31968 16.3863C7.34199 15.8634 7.1653 15.3515 6.8253 14.9536C6.48898 14.5807 6.00344 14.3777 5.50176 14.4004H3.59984ZM10.7995 2.40095V8.40068H16.7993L10.7995 2.40095ZM9.53478 19.3946H9.19639V15.4096H9.60677C9.89824 15.3924 10.1784 15.5243 10.3507 15.76C10.5267 16.1239 10.602 16.5282 10.5691 16.9311V17.9739C10.5955 18.3575 10.5123 18.7408 10.3291 19.079C10.1325 19.3086 9.83536 19.4266 9.53478 19.3946ZM5.50176 17.2803H4.72659V15.4096H5.51256C5.70877 15.4117 5.8901 15.5146 5.99253 15.682C6.12239 15.8963 6.18509 16.1444 6.17253 16.3947C6.18757 16.6281 6.12561 16.86 5.99613 17.0547C5.87679 17.2045 5.69311 17.2883 5.50176 17.2803Z" fill="#E14C4C"/>
</svg>
