<svg width="22" height="22" viewBox="0 0 22 22" fill="none" xmlns="http://www.w3.org/2000/svg">
<path d="M7.3144 1H14.6856C14.9803 1 15.2629 1.11706 15.4713 1.32544L20.6746 6.52873C20.8829 6.7371 21 7.01971 21 7.3144V14.6856C21 14.9803 20.8829 15.2629 20.6746 15.4713L15.4713 20.6746C15.2629 20.8829 14.9803 21 14.6856 21H7.3144C7.01971 21 6.7371 20.8829 6.52873 20.6746L1.32544 15.4713C1.11706 15.2629 1 14.9803 1 14.6856V7.3144C1 7.01972 1.11706 6.7371 1.32544 6.52873L6.52873 1.32544C6.7371 1.11706 7.01972 1 7.3144 1Z" stroke="#01BA3A" stroke-width="1.5" stroke-miterlimit="10" stroke-linecap="round" stroke-linejoin="round"/>
<path d="M14.3333 8.77832L9.88885 13.2228L7.66663 11.0005" stroke="#01BA3A" stroke-width="1.5" stroke-linecap="round" stroke-linejoin="round"/>
</svg>
