<svg width="223" height="308" viewBox="0 0 223 308" fill="none" xmlns="http://www.w3.org/2000/svg">
<g opacity="0.1">
<path d="M51.5335 266.18C51.5335 266.18 51.391 265.99 51.391 265.895L51.0111 265.374C50.7261 264.994 50.4887 264.615 50.2037 264.188C41.7978 250.911 41.4178 234.835 49.0164 216.057C56.5201 197.326 69.7701 181.346 88.8141 168.068C100.165 160.149 111.562 154.554 123.103 151.329C128.802 149.717 134.548 148.721 140.247 148.389C142.194 148.199 144.189 148.105 146.136 148.105C158.104 148.105 167.934 150.665 175.581 155.739C176.008 156.024 176.483 156.261 176.91 156.545C181.09 159.58 184.699 163.421 187.643 168.068C195.954 181.346 196.334 197.374 188.831 216.057C181.232 234.883 167.982 250.911 149.033 264.188C130.084 277.371 110.945 283.962 91.5686 283.962C73.2845 283.962 59.9394 278.035 51.5335 266.18ZM52.8632 259.636C53.2432 260.252 53.5756 260.822 53.9555 261.391C54.0505 261.485 54.1455 261.58 54.2405 261.675C62.029 272.724 74.4243 278.272 91.4736 278.272C109.52 278.272 127.377 272.06 145.044 259.683C162.615 247.402 174.963 232.464 181.992 214.872C189.068 197.421 188.688 182.531 180.9 170.202C178.24 165.84 174.916 162.283 170.974 159.485C170.547 159.201 170.119 158.964 169.787 158.679C162.568 153.937 153.402 151.614 142.337 151.614C124.29 151.614 106.481 157.826 88.9091 170.202C71.2423 182.484 58.8471 197.374 51.8184 214.872C44.7422 232.417 45.1222 247.354 52.9107 259.683L52.8632 259.636Z" fill="#005DFF"/>
<path d="M53.9552 261.344C53.5753 260.822 53.2428 260.206 52.8629 259.589C45.0743 247.307 44.7419 232.37 51.7706 214.777C58.8468 197.327 71.1945 182.437 88.8612 170.108C106.433 157.731 124.242 151.519 142.289 151.519C153.354 151.519 162.52 153.89 169.739 158.585C170.119 158.869 170.499 159.106 170.926 159.391C174.868 162.141 178.145 165.698 180.852 170.108C188.64 182.39 188.973 197.279 181.944 214.777C174.868 232.323 162.568 247.26 144.996 259.589C127.329 271.966 109.472 278.178 91.4258 278.178C74.3764 278.178 61.9812 272.63 54.1927 261.581C54.0977 261.486 54.0027 261.391 53.9077 261.296M93.9428 274.147C110.185 274.052 126.284 268.267 142.146 256.744C158.151 245.221 169.311 231.422 175.628 215.299C182.039 199.176 181.754 185.424 174.678 174.091C172.256 170.06 169.264 166.788 165.702 164.18C165.322 163.896 164.99 163.706 164.61 163.517C158.103 159.249 149.792 157.162 139.677 157.21C123.435 157.21 107.335 162.947 91.4733 174.471C75.4687 185.994 64.3083 199.793 57.8495 215.915C51.5332 232.038 51.8656 245.837 58.9418 257.218C59.3217 257.645 59.6541 258.167 60.0341 258.688C60.0341 258.783 60.0341 258.878 60.1766 258.973C67.2527 269.121 78.4607 274.194 93.9428 274.1V274.147Z" fill="url(#paint0_linear_3591_86875)"/>
<path d="M142.194 256.792C126.284 268.315 110.232 274.1 93.9905 274.195C78.5558 274.29 67.3004 269.263 60.2242 259.068C60.1292 258.973 60.0817 258.878 60.0817 258.784C59.7018 258.262 59.3693 257.74 58.9894 257.314C51.9132 245.885 51.5808 232.134 57.8971 216.011C64.3084 199.888 75.5164 186.041 91.5209 174.566C107.43 163.043 123.482 157.305 139.724 157.305C149.793 157.21 158.104 159.297 164.657 163.612C165.037 163.802 165.37 163.991 165.75 164.276C169.312 166.884 172.303 170.156 174.726 174.187C181.802 185.52 182.087 199.224 175.675 215.394C169.359 231.517 158.199 245.364 142.194 256.839V256.792Z" fill="url(#paint1_linear_3591_86875)"/>
<path d="M94.4214 236.707C86.6159 227.061 91.0776 210.48 104.367 199.748C116.346 190.074 131.469 188.402 140.052 195.229L133.993 201.858C132.123 201.337 129.675 201.923 127.642 203.564C124.743 205.906 123.768 209.526 125.472 211.632C127.176 213.738 130.923 213.544 133.823 211.202C135.987 209.454 137.079 206.994 136.786 204.984L144.559 200.779C149.48 210.596 144.677 225.049 132.679 234.738C119.39 245.47 102.227 246.354 94.4214 236.707ZM138.346 205.067C138.402 207.435 137.053 210.159 134.589 212.149C130.969 215.073 126.293 215.313 124.167 212.685C122.041 210.057 123.255 205.54 126.875 202.616C129.339 200.626 132.288 199.879 134.594 200.43C131.5 199.194 127.154 200.065 123.593 202.94C118.904 206.728 117.332 212.576 120.087 215.98C122.841 219.385 128.893 219.073 133.583 215.286C137.144 212.41 138.908 208.348 138.346 205.067ZM134.35 216.234C128.941 220.602 121.958 220.962 118.781 217.035C115.604 213.109 117.418 206.362 122.827 201.993C126.614 198.935 131.174 197.842 134.658 198.81C130.224 196.997 123.958 198.237 118.833 202.377C112.118 207.8 109.862 216.176 113.807 221.051C117.752 225.927 126.424 225.48 133.139 220.057C138.264 215.917 140.792 210.054 139.945 205.343C140.164 208.949 138.137 213.176 134.35 216.234ZM133.905 221.004C126.469 227.008 116.868 227.503 112.501 222.106C108.135 216.71 110.63 207.433 118.066 201.429C123.429 197.097 129.921 195.633 134.763 197.181C128.987 194.775 120.784 196.38 114.079 201.795C105.333 208.858 102.396 219.768 107.534 226.118C112.672 232.468 123.965 231.885 132.711 224.822C139.416 219.407 142.706 211.73 141.561 205.583C142.062 210.637 139.268 216.672 133.905 221.004ZM133.478 225.769C124.011 233.414 111.787 234.043 106.228 227.173C100.668 220.302 103.845 208.492 113.312 200.847C119.785 195.62 127.546 193.673 133.588 195.161C126.606 192.889 117.21 194.988 109.451 201.254C98.7401 209.904 95.1455 223.267 101.437 231.042C107.728 238.817 121.559 238.105 132.271 229.455C140.03 223.189 144.054 214.452 143.293 207.156C143.483 213.369 139.95 220.542 133.478 225.769ZM144.893 208.1C145.053 215.559 140.794 224.139 133.038 230.403C121.607 239.634 106.845 240.391 100.132 232.095C93.4194 223.799 97.2547 209.538 108.685 200.307C116.441 194.043 125.731 191.679 132.998 193.4C124.854 190.971 114.068 193.479 105.133 200.695C92.563 210.847 88.3443 226.528 95.7274 235.653C103.11 244.777 119.342 243.942 131.912 233.79C140.847 226.574 145.563 216.565 144.893 208.1Z" fill="#95DFFF"/>
<path d="M51.0101 265.374L39.6122 251.338C33.011 242.708 29.4016 234.599 28.7842 227.154C28.2618 219.567 30.0665 210.699 34.2932 200.551C41.7968 181.726 55.0469 165.745 74.0909 152.563C84.159 145.45 94.4171 140.233 104.77 136.914C108.237 135.776 111.751 134.875 115.218 134.259C125.856 132.551 134.215 132.551 140.389 134.259C146.562 136.108 151.502 138.526 155.253 141.466L175.627 155.787C167.934 150.713 158.15 148.153 146.183 148.153C144.235 148.153 142.241 148.247 140.294 148.437C134.595 148.816 128.848 149.765 123.149 151.377C111.609 154.602 100.211 160.15 88.8606 168.116C69.8641 181.394 56.5666 197.422 49.063 216.105C41.4644 234.931 41.8918 250.959 50.2503 264.236C50.5352 264.663 50.7727 265.09 51.0576 265.422L51.0101 265.374Z" fill="url(#paint2_linear_3591_86875)"/>
<rect x="19.001" y="130.208" width="187" height="177.303" rx="19" fill="url(#paint3_linear_3591_86875)"/>
</g>
<g filter="url(#filter0_dd_3591_86875)">
<path d="M51.5326 17.7824C51.5326 17.7824 51.3902 17.9721 51.3902 18.067L51.0102 18.5886C50.7253 18.968 50.4878 19.3473 50.2029 19.7741C41.7969 33.0517 41.417 49.127 49.0156 67.9052C56.5192 86.6361 69.7693 102.617 88.8132 115.894C100.164 123.813 111.562 129.409 123.102 132.633C128.801 134.246 134.547 135.241 140.246 135.573C142.193 135.763 144.188 135.858 146.135 135.858C158.103 135.858 167.934 133.297 175.58 128.223C176.007 127.939 176.482 127.702 176.909 127.417C181.089 124.382 184.698 120.541 187.642 115.894C195.953 102.617 196.333 86.5887 188.83 67.9052C181.231 49.0796 167.981 33.0517 149.032 19.7741C130.083 6.59137 110.944 0 91.5677 0C73.2836 0 59.9386 5.92748 51.5326 17.7824ZM52.8624 24.3264C53.2423 23.7099 53.5748 23.1409 53.9547 22.5719C54.0497 22.477 54.1446 22.3822 54.2396 22.2873C62.0282 11.2385 74.4234 5.69039 91.4728 5.69039C109.519 5.69039 127.376 11.9024 145.043 24.279C162.615 36.5607 174.962 51.498 181.991 69.0907C189.067 86.5412 188.687 101.431 180.899 113.76C178.239 118.123 174.915 121.679 170.973 124.477C170.546 124.762 170.118 124.999 169.786 125.283C162.567 130.025 153.401 132.349 142.336 132.349C124.289 132.349 106.48 126.137 88.9082 113.76C71.2415 101.479 58.8463 86.5887 51.8176 69.0907C44.7414 51.5454 45.1213 36.6081 52.9099 24.279L52.8624 24.3264Z" fill="#005DFF"/>
<path d="M53.9544 22.6197C53.5744 23.1413 53.242 23.7578 52.8621 24.3742C45.0735 36.656 44.741 51.5932 51.7697 69.186C58.8459 86.6365 71.1937 101.526 88.8604 113.856C106.432 126.232 124.241 132.444 142.288 132.444C153.353 132.444 162.519 130.073 169.738 125.379C170.118 125.094 170.498 124.857 170.925 124.572C174.867 121.822 178.144 118.266 180.851 113.856C188.639 101.574 188.972 86.6839 181.943 69.186C174.867 51.6406 162.567 36.7034 144.995 24.3742C127.328 11.9976 109.472 5.78564 91.4249 5.78564C74.3756 5.78564 61.9804 11.3338 54.1918 22.3826C54.0968 22.4774 54.0018 22.5723 53.9069 22.6671M93.942 9.81633C110.184 9.91116 126.283 15.6964 142.146 27.2194C158.15 38.7424 169.311 52.5416 175.627 68.6644C182.038 84.7871 181.753 98.5389 174.677 109.872C172.255 113.903 169.263 117.175 165.701 119.783C165.321 120.068 164.989 120.257 164.609 120.447C158.103 124.715 149.792 126.801 139.676 126.754C123.434 126.754 107.334 121.016 91.4724 109.493C75.4679 97.9698 64.3074 84.1707 57.8486 68.0479C51.5323 51.9252 51.8647 38.126 58.9409 26.7452C59.3209 26.3184 59.6533 25.7968 60.0332 25.2752C60.0332 25.1804 60.0332 25.0855 60.1757 24.9907C67.2519 14.8428 78.4598 9.76892 93.942 9.86376V9.81633Z" fill="url(#paint4_linear_3591_86875)"/>
<path d="M142.193 27.1715C126.284 15.6485 110.232 9.86325 93.9896 9.76841C78.555 9.67357 67.2995 14.7001 60.2233 24.8953C60.1284 24.9902 60.0809 25.085 60.0809 25.1799C59.7009 25.7015 59.3685 26.2231 58.9886 26.6499C51.9124 38.078 51.5799 51.8298 57.8963 67.9526C64.3076 84.0753 75.5155 97.9219 91.5201 109.398C107.43 120.921 123.482 126.658 139.724 126.658C149.792 126.753 158.103 124.667 164.657 120.352C165.036 120.162 165.369 119.972 165.749 119.688C169.311 117.08 172.303 113.808 174.725 109.777C181.801 98.4435 182.086 84.7392 175.675 68.569C169.358 52.4463 158.198 38.5997 142.193 27.1241V27.1715Z" fill="url(#paint5_linear_3591_86875)"/>
<path d="M94.4204 47.2565C86.6149 56.9029 91.0766 73.4834 104.366 84.2155C116.345 93.8894 131.468 95.5616 140.051 88.7346L133.992 82.1059C132.122 82.6267 129.674 82.0409 127.641 80.3996C124.742 78.0579 123.767 74.438 125.471 72.3321C127.175 70.2263 130.922 70.4202 133.822 72.7619C135.986 74.5102 137.078 76.9699 136.785 78.9803L144.558 83.185C149.479 73.3675 144.676 58.9144 132.678 49.2256C119.389 38.4935 102.226 37.6101 94.4204 47.2565ZM138.345 78.897C138.401 76.5286 137.052 73.8047 134.588 71.815C130.968 68.8913 126.292 68.6507 124.166 71.2786C122.04 73.9065 123.254 78.4239 126.874 81.3476C129.338 83.3374 132.287 84.0847 134.593 83.5336C131.499 84.7699 127.153 83.899 123.592 81.0236C118.903 77.2362 117.331 71.3877 120.086 67.9834C122.84 64.5791 128.892 64.8906 133.582 68.678C137.143 71.5534 138.907 75.6156 138.345 78.897ZM134.349 67.73C128.94 63.3618 121.957 63.0023 118.78 66.9287C115.603 70.8551 117.417 77.6023 122.826 81.9706C126.613 85.0289 131.173 86.1218 134.657 85.1543C130.223 86.9667 123.957 85.7267 118.832 81.5873C112.117 76.1644 109.861 67.7878 113.806 62.9124C117.751 58.037 126.423 58.4843 133.138 63.9073C138.263 68.0467 140.791 73.91 139.944 78.6207C140.163 75.0148 138.136 70.7883 134.349 67.73ZM133.904 62.9604C126.468 56.9554 116.867 56.4613 112.5 61.8577C108.134 67.2541 110.629 76.5304 118.065 82.5353C123.428 86.8668 129.92 88.3306 134.762 86.7825C128.986 89.1892 120.783 87.5835 114.078 82.1686C105.332 75.1055 102.395 64.1955 107.533 57.8459C112.671 51.4964 123.964 52.0787 132.71 59.1418C139.415 64.5567 142.705 72.2338 141.56 78.3808C142.061 73.3271 139.267 67.2918 133.904 62.9604ZM133.477 58.1948C124.01 50.5498 111.786 49.9206 106.227 56.7913C100.667 63.6619 103.844 75.4715 113.311 83.1166C119.784 88.344 127.545 90.291 133.587 88.8025C126.605 91.075 117.209 88.9761 109.45 82.7101C98.7392 74.0598 95.1446 60.6973 101.436 52.9221C107.727 45.1469 121.558 45.8588 132.27 54.5091C140.029 60.7751 144.053 69.512 143.292 76.8083C143.483 70.595 139.949 63.4223 133.477 58.1948ZM144.892 75.8634C145.052 68.4047 140.793 59.8248 133.037 53.5611C121.606 44.33 106.844 43.5724 100.131 51.8686C93.4184 60.1648 97.2537 74.4259 108.684 83.657C116.44 89.9208 125.73 92.2845 132.997 90.564C124.853 92.9931 114.067 90.4846 105.132 83.2685C92.5621 73.1173 88.3434 57.4355 95.7264 48.3112C103.109 39.1869 119.341 40.0223 131.911 50.1735C140.846 57.3896 145.562 67.3994 144.892 75.8634Z" fill="#95DFFF"/>
<path d="M51.0091 18.5894L39.6113 32.6257C33.01 41.2561 29.4006 49.3649 28.7833 56.8098C28.2609 64.397 30.0655 73.2645 34.2922 83.4124C41.7959 102.238 55.0459 118.219 74.0899 131.401C84.158 138.514 94.4161 143.73 104.769 147.05C108.236 148.188 111.75 149.089 115.217 149.705C125.855 151.412 134.214 151.412 140.388 149.705C146.562 147.856 151.501 145.438 155.252 142.498L175.626 128.177C167.933 133.251 158.149 135.811 146.182 135.811C144.234 135.811 142.24 135.716 140.293 135.527C134.594 135.147 128.847 134.199 123.148 132.587C111.608 129.362 100.21 123.814 88.8597 115.848C69.8632 102.57 56.5656 86.5421 49.062 67.8587C41.4634 49.033 41.8908 33.005 50.2493 19.7275C50.5342 19.3007 50.7717 18.8739 51.0566 18.542L51.0091 18.5894Z" fill="url(#paint6_linear_3591_86875)"/>
</g>
<defs>
<filter id="filter0_dd_3591_86875" x="0.695435" y="0" width="221.486" height="216.986" filterUnits="userSpaceOnUse" color-interpolation-filters="sRGB">
<feFlood flood-opacity="0" result="BackgroundImageFix"/>
<feColorMatrix in="SourceAlpha" type="matrix" values="0 0 0 0 0 0 0 0 0 0 0 0 0 0 0 0 0 0 127 0" result="hardAlpha"/>
<feOffset dy="38"/>
<feGaussianBlur stdDeviation="14"/>
<feComposite in2="hardAlpha" operator="out"/>
<feColorMatrix type="matrix" values="0 0 0 0 0.133333 0 0 0 0 0.4 0 0 0 0 0.968627 0 0 0 0.3 0"/>
<feBlend mode="normal" in2="BackgroundImageFix" result="effect1_dropShadow_3591_86875"/>
<feColorMatrix in="SourceAlpha" type="matrix" values="0 0 0 0 0 0 0 0 0 0 0 0 0 0 0 0 0 0 127 0" result="hardAlpha"/>
<feOffset dx="-1" dy="15"/>
<feComposite in2="hardAlpha" operator="out"/>
<feColorMatrix type="matrix" values="0 0 0 0 0.6 0 0 0 0 0.72549 0 0 0 0 1 0 0 0 1 0"/>
<feBlend mode="normal" in2="effect1_dropShadow_3591_86875" result="effect2_dropShadow_3591_86875"/>
<feBlend mode="normal" in="SourceGraphic" in2="effect2_dropShadow_3591_86875" result="shape"/>
</filter>
<linearGradient id="paint0_linear_3591_86875" x1="190.228" y1="165.377" x2="50.9765" y2="165.377" gradientUnits="userSpaceOnUse">
<stop stop-color="#00D3FF"/>
<stop offset="0.51" stop-color="#00A1FF"/>
<stop offset="1" stop-color="#00CBFF"/>
</linearGradient>
<linearGradient id="paint1_linear_3591_86875" x1="213.446" y1="88.5273" x2="31.3636" y2="241.622" gradientUnits="userSpaceOnUse">
<stop stop-color="#005DFF"/>
<stop offset="1" stop-color="#00AAFF"/>
</linearGradient>
<linearGradient id="paint2_linear_3591_86875" x1="178.819" y1="149.763" x2="33.2104" y2="149.763" gradientUnits="userSpaceOnUse">
<stop stop-color="#004ACD"/>
<stop offset="0.49" stop-color="#00A2FF"/>
<stop offset="1" stop-color="#0046C3"/>
</linearGradient>
<linearGradient id="paint3_linear_3591_86875" x1="112.501" y1="141.389" x2="112.501" y2="250.007" gradientUnits="userSpaceOnUse">
<stop stop-color="white" stop-opacity="0"/>
<stop offset="1" stop-color="white"/>
</linearGradient>
<linearGradient id="paint4_linear_3591_86875" x1="190.228" y1="118.586" x2="50.9757" y2="118.586" gradientUnits="userSpaceOnUse">
<stop stop-color="#00D3FF"/>
<stop offset="0.51" stop-color="#00A1FF"/>
<stop offset="1" stop-color="#00CBFF"/>
</linearGradient>
<linearGradient id="paint5_linear_3591_86875" x1="213.445" y1="195.436" x2="31.3627" y2="42.3417" gradientUnits="userSpaceOnUse">
<stop stop-color="#005DFF"/>
<stop offset="1" stop-color="#00AAFF"/>
</linearGradient>
<linearGradient id="paint6_linear_3591_86875" x1="178.818" y1="134.201" x2="33.2094" y2="134.201" gradientUnits="userSpaceOnUse">
<stop stop-color="#004ACD"/>
<stop offset="0.49" stop-color="#00A2FF"/>
<stop offset="1" stop-color="#0046C3"/>
</linearGradient>
</defs>
</svg>
