<svg width="32" height="32" viewBox="0 0 32 32" fill="none" xmlns="http://www.w3.org/2000/svg">
<rect width="32" height="32" rx="7" fill="#F1F1F9"/>
<path d="M6 13V11C6 8 8 6 11 6H21C24 6 26 8 26 11V13" stroke="#005DFF" stroke-width="1.5" stroke-miterlimit="10" stroke-linecap="round" stroke-linejoin="round"/>
<path d="M6 19V21C6 24 8 26 11 26H21C24 26 26 24 26 21V19" stroke="#005DFF" stroke-width="1.5" stroke-miterlimit="10" stroke-linecap="round" stroke-linejoin="round"/>
<path d="M14.7602 10.2901L11.5602 12.0701C10.8402 12.4701 10.2402 13.4801 10.2402 14.3101V17.7001C10.2402 18.5301 10.8302 19.5401 11.5602 19.9401L14.7602 21.7201C15.4402 22.1001 16.5602 22.1001 17.2502 21.7201L20.4502 19.9401C21.1702 19.5401 21.7702 18.5301 21.7702 17.7001V14.3101C21.7702 13.4801 21.1802 12.4701 20.4502 12.0701L17.2502 10.2901C16.5602 9.90006 15.4402 9.90006 14.7602 10.2901Z" stroke="#005DFF" stroke-width="1.5" stroke-linecap="round" stroke-linejoin="round"/>
<path d="M10.7002 13.26L16.0002 16.33L21.2602 13.28" stroke="#005DFF" stroke-width="1.5" stroke-linecap="round" stroke-linejoin="round"/>
<path d="M16 21.7701V16.3201" stroke="#005DFF" stroke-width="1.5" stroke-linecap="round" stroke-linejoin="round"/>
</svg>
